<?xml version="1.0" encoding="utf-8"?>
<!-- Generator: Adobe Illustrator 16.0.0, SVG Export Plug-In . SVG Version: 6.00 Build 0)  -->
<!DOCTYPE svg PUBLIC "-//W3C//DTD SVG 1.1//EN" "http://www.w3.org/Graphics/SVG/1.1/DTD/svg11.dtd">
<svg version="1.1" id="svg2547" xmlns:svg="http://www.w3.org/2000/svg"
	 xmlns="http://www.w3.org/2000/svg" xmlns:xlink="http://www.w3.org/1999/xlink" x="0px" y="0px" width="290px" height="176.711px"
	 viewBox="111.41 138.197 290 176.711" enable-background="new 111.41 138.197 290 176.711" xml:space="preserve">
<g id="Ebene_2_1_">
	<g id="g2557">
		<path id="path2559" fill="#FFFFFF" d="M354.834,259.205c-2.281-3.625-7.244-3.221-11.002-3.491
			c-2.549-4.56-4.965-9.256-7.648-13.951c-1.072,5.366-2.145,10.867-3.486,16.233c-2.551,0.401-4.965,1.209-7.516,1.609
			c-3.621-4.562-6.977-9.122-10.33-13.818c-0.939,4.696-1.609,9.526-3.354,14.088c-3.893,2.28-8.588,2.28-13.016,2.548
			c-2.281-4.83-4.428-9.526-6.709-14.355c-1.609,4.696-3.355,9.392-5.098,13.954c-4.967,0.401-9.93,0.537-14.895,0.268
			c-1.877-4.562-3.891-9.259-5.77-13.818c-2.145,4.159-4.158,8.451-6.305,12.61c-4.16-0.535-8.453-0.938-12.748-1.342
			c-1.877-4.159-3.889-8.317-5.768-12.477c-1.611,4.159-3.22,8.451-4.964,12.477c-4.025-0.134-7.916-0.134-11.807-0.268
			c-2.014-4.024-3.893-8.05-5.636-12.075c-1.744,3.758-3.354,7.646-4.831,11.538c-5.634,0-11.27,0-16.905-0.268
			c6.575-7.111,15.833-10.6,23.615-16.233c3.488,2.816,6.979,5.634,10.6,8.317c-0.134-4.429-0.134-8.988-0.134-13.551
			c3.622-1.745,7.245-3.221,11.135-4.562c4.025,3.087,8.051,6.037,12.211,8.988c0.133-5.097-0.404-10.33,0.4-15.43
			c2.683-2.013,5.771-3.085,8.72-4.426c4.832,2.816,9.662,5.634,14.492,8.451c-1.207-4.83-2.281-9.526-3.221-14.355
			c3.488-2.013,6.977-4.025,10.6-6.038c4.025,2.817,8.32,5.367,12.479,8.184c-1.072-4.562-2.012-9.122-3.086-13.684
			c3.623-2.55,7.244-5.233,10.734-7.917c4.428,2.95,8.854,5.904,13.148,8.854c-1.207-4.562-2.551-9.122-3.756-13.818
			c2.682-2.012,5.365-4.024,8.049-6.174c3.893,2.416,7.918,4.832,12.076,6.979c-1.209-4.966-2.551-9.795-3.756-14.625
			c1.744-1.879,4.561-3.221,5.365-5.771c-0.402-2.413-1.609-4.696-3.756-5.901c-5.635-3.221-12.613-4.025-18.785-2.416
			c-4.561,2.816-6.977,8.05-11.002,11.404c-17.443,15.43-38.775,26.567-61.449,31.664c-13.284,3.488-26.299-6.305-39.581-2.146
			c-13.954,4.964-20.261,20.797-33.946,26.164c-4.963,2.28-10.197-0.938-15.161-0.268c-2.684,1.877-4.025,4.964-5.636,7.646
			c-8.184,15.431-17.039,30.593-24.956,46.156c4.963,0.938,8.855-2.013,11.807-5.637c5.769-6.976,16.503-8.585,24.419-4.293
			c5.233,2.817,8.318,8.318,13.685,10.734c5.904,0.403,9.527-5.1,13.687-8.317c5.903-5.367,15.16-5.771,21.869-2.013
			c4.16,2.547,6.441,7.109,10.6,9.525c3.354,1.476,7.648,1.742,10.734-0.671c4.562-3.624,8.319-8.991,14.491-10.333
			c7.109-2.547,15.429-0.134,20.259,5.637c2.816,2.951,5.635,7.514,10.33,6.439c8.32-1.072,10.734-11.539,18.785-13.014
			c6.977-1.609,13.551,2.146,20.395,3.354c11.807,2.817,23.883,0.537,35.422-2.416C351.748,269.131,357.785,264.705,354.834,259.205
			z M230.726,214.391c-2.951,2.146-6.038,4.025-9.123,6.038c-0.135-3.087-0.537-6.172-0.537-9.125
			C224.286,212.244,227.506,213.183,230.726,214.391z M202.819,216.94c1.342-5.771,7.647-7.112,12.747-6.979
			c0.134,4.295,0.671,8.588,1.072,12.88C212.612,227.808,199.732,224.587,202.819,216.94z"/>
		<path id="path2561" fill="#FFFFFF" d="M330.416,291.002c5.098-4.024,9.258-10.6,16.502-10.733c5.904-0.268,9.258,5.1,13.148,8.588
			c4.965,4.829,13.686,5.634,18.92,0.805c4.963-4.429,9.928-8.989,16.771-10.063c0,3.354,0,6.843-0.135,10.196
			c-9.795,2.013-15.295,13.284-25.896,12.88c-7.379,0.137-12.074-6.037-17.309-10.33c-2.949-2.816-7.914-2.55-10.867,0
			c-5.77,4.429-10.867,10.601-18.648,11.271c-6.977,0.671-12.211-4.562-16.906-8.855c-3.488-3.49-9.123-5.637-13.418-2.549
			c-6.307,4.292-11.27,11.538-19.455,11.672c-10.732,0.403-14.758-13.552-25.492-13.014c-8.185,1.475-12.343,10.062-20.26,12.343
			c-6.171,1.879-12.611-1.342-17.172-5.501c-3.892-3.087-7.917-7.917-13.552-6.842c-8.586,2.279-13.282,12.343-22.81,12.343
			c-10.869,0.94-15.832-13.818-26.699-12.477c-6.708,2.413-10.869,9.256-17.712,11.538c-3.488,1.071-6.976-0.805-10.33-1.745
			c0-3.085,0-6.306-0.134-9.526c2.684,0.805,5.5,1.609,8.184,2.28c8.587-2.413,12.88-13.417,22.541-12.477
			c7.245-0.403,11.27,6.438,16.503,10.196c4.294,3.354,10.867,3.221,14.893-0.267c5.233-3.892,9.662-10.601,16.906-9.93
			c6.844-0.403,11.405,5.097,16.101,9.259c4.427,4.158,12.211,5.23,16.906,0.938c5.367-4.429,10.464-10.466,17.978-10.062
			c6.977-0.268,12.21,5.1,16.771,9.525c2.146,2.416,5.232,3.892,8.586,3.221c9.527-0.537,12.881-13.417,22.945-12.746
			c7.379-1.074,12.209,5.1,17.039,9.525C318.473,294.76,325.854,294.76,330.416,291.002L330.416,291.002z"/>
	</g>
</g>
</svg>
